<svg width="24" height="25" viewBox="0 0 24 25" fill="none" xmlns="http://www.w3.org/2000/svg">
<path d="M20 9.2793H11C9.89543 9.2793 9 10.1747 9 11.2793V20.2793C9 21.3839 9.89543 22.2793 11 22.2793H20C21.1046 22.2793 22 21.3839 22 20.2793V11.2793C22 10.1747 21.1046 9.2793 20 9.2793Z" stroke="#10B981" stroke-width="2" stroke-linecap="round" stroke-linejoin="round"/>
<path d="M5 15.2793H4C3.46957 15.2793 2.96086 15.0686 2.58579 14.6935C2.21071 14.3184 2 13.8097 2 13.2793V4.2793C2 3.74886 2.21071 3.24016 2.58579 2.86508C2.96086 2.49001 3.46957 2.2793 4 2.2793H13C13.5304 2.2793 14.0391 2.49001 14.4142 2.86508C14.7893 3.24016 15 3.74886 15 4.2793V5.2793" stroke="#10B981" stroke-width="2" stroke-linecap="round" stroke-linejoin="round"/>
</svg>
