<svg width="24" height="25" viewBox="0 0 24 25" fill="none" xmlns="http://www.w3.org/2000/svg">
<g clip-path="url(#clip0_535_2)">
<path d="M12 15.1819C13.6569 15.1819 15 13.8387 15 12.1819C15 10.525 13.6569 9.18188 12 9.18188C10.3431 9.18188 9 10.525 9 12.1819C9 13.8387 10.3431 15.1819 12 15.1819Z" stroke="#94A3B8" stroke-width="2" stroke-linecap="round" stroke-linejoin="round"/>
<path d="M19.4 15.1819C19.2669 15.4835 19.2272 15.8181 19.286 16.1425C19.3448 16.4669 19.4995 16.7662 19.73 17.0019L19.79 17.0619C19.976 17.2476 20.1235 17.4682 20.2241 17.711C20.3248 17.9538 20.3766 18.2141 20.3766 18.4769C20.3766 18.7397 20.3248 19 20.2241 19.2428C20.1235 19.4856 19.976 19.7061 19.79 19.8919C19.6043 20.0778 19.3837 20.2254 19.1409 20.326C18.8981 20.4267 18.6378 20.4785 18.375 20.4785C18.1122 20.4785 17.8519 20.4267 17.6091 20.326C17.3663 20.2254 17.1457 20.0778 16.96 19.8919L16.9 19.8319C16.6643 19.6013 16.365 19.4467 16.0406 19.3879C15.7162 19.3291 15.3816 19.3688 15.08 19.5019C14.7842 19.6286 14.532 19.8391 14.3543 20.1074C14.1766 20.3757 14.0813 20.6901 14.08 21.0119V21.1819C14.08 21.7123 13.8693 22.221 13.4942 22.5961C13.1191 22.9712 12.6104 23.1819 12.08 23.1819C11.5496 23.1819 11.0409 22.9712 10.6658 22.5961C10.2907 22.221 10.08 21.7123 10.08 21.1819V21.0919C10.0723 20.7609 9.96512 20.4399 9.77251 20.1706C9.5799 19.9013 9.31074 19.6962 9 19.5819C8.69838 19.4488 8.36381 19.4091 8.03941 19.4679C7.71502 19.5267 7.41568 19.6813 7.18 19.9119L7.12 19.9719C6.93425 20.1578 6.71368 20.3054 6.47088 20.406C6.22808 20.5067 5.96783 20.5585 5.705 20.5585C5.44217 20.5585 5.18192 20.5067 4.93912 20.406C4.69632 20.3054 4.47575 20.1578 4.29 19.9719C4.10405 19.7861 3.95653 19.5656 3.85588 19.3228C3.75523 19.08 3.70343 18.8197 3.70343 18.5569C3.70343 18.2941 3.75523 18.0338 3.85588 17.791C3.95653 17.5482 4.10405 17.3276 4.29 17.1419L4.35 17.0819C4.58054 16.8462 4.73519 16.5469 4.794 16.2225C4.85282 15.8981 4.81312 15.5635 4.68 15.2619C4.55324 14.9661 4.34276 14.7139 4.07447 14.5362C3.80618 14.3585 3.49179 14.2632 3.17 14.2619H3C2.46957 14.2619 1.96086 14.0512 1.58579 13.6761C1.21071 13.301 1 12.7923 1 12.2619C1 11.7315 1.21071 11.2227 1.58579 10.8477C1.96086 10.4726 2.46957 10.2619 3 10.2619H3.09C3.42099 10.2541 3.742 10.147 4.0113 9.9544C4.28059 9.76179 4.48572 9.49262 4.6 9.18188C4.73312 8.88027 4.77282 8.54569 4.714 8.2213C4.65519 7.8969 4.50054 7.59756 4.27 7.36188L4.21 7.30188C4.02405 7.11614 3.87653 6.89556 3.77588 6.65277C3.67523 6.40997 3.62343 6.14972 3.62343 5.88688C3.62343 5.62405 3.67523 5.3638 3.77588 5.121C3.87653 4.87821 4.02405 4.65763 4.21 4.47188C4.39575 4.28593 4.61632 4.13841 4.85912 4.03777C5.10192 3.93712 5.36217 3.88531 5.625 3.88531C5.88783 3.88531 6.14808 3.93712 6.39088 4.03777C6.63368 4.13841 6.85425 4.28593 7.04 4.47188L7.1 4.53188C7.33568 4.76242 7.63502 4.91707 7.95941 4.97589C8.28381 5.03471 8.61838 4.995 8.92 4.86188H9C9.29577 4.73512 9.54802 4.52464 9.72569 4.25635C9.90337 3.98806 9.99872 3.67367 10 3.35188V3.18188C10 2.65145 10.2107 2.14274 10.5858 1.76767C10.9609 1.3926 11.4696 1.18188 12 1.18188C12.5304 1.18188 13.0391 1.3926 13.4142 1.76767C13.7893 2.14274 14 2.65145 14 3.18188V3.27188C14.0013 3.59367 14.0966 3.90806 14.2743 4.17635C14.452 4.44464 14.7042 4.65512 15 4.78188C15.3016 4.915 15.6362 4.95471 15.9606 4.89589C16.285 4.83707 16.5843 4.68242 16.82 4.45188L16.88 4.39188C17.0657 4.20593 17.2863 4.05841 17.5291 3.95777C17.7719 3.85712 18.0322 3.80531 18.295 3.80531C18.5578 3.80531 18.8181 3.85712 19.0609 3.95777C19.3037 4.05841 19.5243 4.20593 19.71 4.39188C19.896 4.57763 20.0435 4.79821 20.1441 5.041C20.2448 5.2838 20.2966 5.54405 20.2966 5.80688C20.2966 6.06972 20.2448 6.32997 20.1441 6.57277C20.0435 6.81556 19.896 7.03614 19.71 7.22188L19.65 7.28188C19.4195 7.51756 19.2648 7.8169 19.206 8.1413C19.1472 8.46569 19.1869 8.80027 19.32 9.10188V9.18188C19.4468 9.47765 19.6572 9.7299 19.9255 9.90758C20.1938 10.0853 20.5082 10.1806 20.83 10.1819H21C21.5304 10.1819 22.0391 10.3926 22.4142 10.7677C22.7893 11.1427 23 11.6515 23 12.1819C23 12.7123 22.7893 13.221 22.4142 13.5961C22.0391 13.9712 21.5304 14.1819 21 14.1819H20.91C20.5882 14.1832 20.2738 14.2785 20.0055 14.4562C19.7372 14.6339 19.5268 14.8861 19.4 15.1819V15.1819Z" stroke="#94A3B8" stroke-width="2" stroke-linecap="round" stroke-linejoin="round"/>
</g>
<defs>
<clipPath id="clip0_535_2">
<rect width="24" height="24" fill="white" transform="translate(0 0.181885)"/>
</clipPath>
</defs>
</svg>
