<svg width="25" height="24" viewBox="0 0 25 24" fill="none" xmlns="http://www.w3.org/2000/svg">
<path d="M15.0334 6.29998C14.8501 6.48691 14.7475 6.73823 14.7475 6.99998C14.7475 7.26173 14.8501 7.51305 15.0334 7.69998L16.6334 9.29998C16.8203 9.48321 17.0716 9.58584 17.3334 9.58584C17.5951 9.58584 17.8464 9.48321 18.0334 9.29998L21.8034 5.52998C22.3062 6.64117 22.4584 7.87921 22.2398 9.07913C22.0212 10.279 21.4421 11.3838 20.5796 12.2463C19.7172 13.1087 18.6124 13.6878 17.4125 13.9064C16.2126 14.1251 14.9745 13.9728 13.8634 13.47L6.95335 20.38C6.55553 20.7778 6.01596 21.0013 5.45335 21.0013C4.89074 21.0013 4.35118 20.7778 3.95335 20.38C3.55553 19.9822 3.33203 19.4426 3.33203 18.88C3.33203 18.3174 3.55553 17.7778 3.95335 17.38L10.8634 10.47C10.3605 9.35879 10.2083 8.12075 10.4269 6.92083C10.6455 5.72092 11.2246 4.61614 12.0871 3.7537C12.9495 2.89127 14.0543 2.31215 15.2542 2.09352C16.4541 1.8749 17.6922 2.02714 18.8034 2.52998L15.0434 6.28998L15.0334 6.29998Z" stroke="#334155" stroke-width="2" stroke-linecap="round" stroke-linejoin="round"/>
</svg>
