<svg width="25" height="24" viewBox="0 0 25 24" fill="none" xmlns="http://www.w3.org/2000/svg">
<path d="M22.6667 12H2.66675" stroke="#334155" stroke-width="2" stroke-linecap="round" stroke-linejoin="round"/>
<path d="M6.11675 5.11L2.66675 12V18C2.66675 18.5304 2.87746 19.0391 3.25253 19.4142C3.62761 19.7893 4.13632 20 4.66675 20H20.6667C21.1972 20 21.7059 19.7893 22.081 19.4142C22.456 19.0391 22.6667 18.5304 22.6667 18V12L19.2167 5.11C19.0512 4.77679 18.7959 4.49637 18.4797 4.30028C18.1635 4.10419 17.7988 4.0002 17.4267 4H7.90675C7.53466 4.0002 7.17001 4.10419 6.85379 4.30028C6.53757 4.49637 6.28233 4.77679 6.11675 5.11V5.11Z" stroke="#334155" stroke-width="2" stroke-linecap="round" stroke-linejoin="round"/>
<path d="M6.66675 16H6.67675" stroke="#334155" stroke-width="2" stroke-linecap="round" stroke-linejoin="round"/>
<path d="M10.6667 16H10.6767" stroke="#334155" stroke-width="2" stroke-linecap="round" stroke-linejoin="round"/>
</svg>
