<svg width="25" height="25" viewBox="0 0 25 25" fill="none" xmlns="http://www.w3.org/2000/svg">
<g clip-path="url(#clip0_527_2)">
<path d="M11.1977 3.96445L2.72774 18.1045C2.5531 18.4069 2.4607 18.7498 2.45972 19.099C2.45875 19.4482 2.54923 19.7916 2.72216 20.095C2.8951 20.3984 3.14446 20.6512 3.44544 20.8283C3.74643 21.0054 4.08853 21.1006 4.43774 21.1045H21.3777C21.7269 21.1006 22.069 21.0054 22.37 20.8283C22.671 20.6512 22.9204 20.3984 23.0933 20.095C23.2662 19.7916 23.3567 19.4482 23.3557 19.099C23.3548 18.7498 23.2624 18.4069 23.0877 18.1045L14.6177 3.96445C14.4395 3.67056 14.1885 3.42757 13.8889 3.25894C13.5894 3.0903 13.2515 3.00171 12.9077 3.00171C12.564 3.00171 12.2261 3.0903 11.9265 3.25894C11.627 3.42757 11.376 3.67056 11.1977 3.96445V3.96445Z" stroke="#10B981" stroke-width="2" stroke-linecap="round" stroke-linejoin="round"/>
<path d="M12.9077 9.10449V13.1045" stroke="#10B981" stroke-width="2" stroke-linecap="round" stroke-linejoin="round"/>
<path d="M12.9077 17.1045H12.9177" stroke="#10B981" stroke-width="2" stroke-linecap="round" stroke-linejoin="round"/>
</g>
<defs>
<clipPath id="clip0_527_2">
<rect width="24" height="24" fill="white" transform="translate(0.907715 0.104492)"/>
</clipPath>
</defs>
</svg>
