<svg width="93" height="18" viewBox="0 0 93 18" fill="none" xmlns="http://www.w3.org/2000/svg">
<path d="M8.616 3.56C10.264 3.56 11.576 4.024 12.552 4.952C13.544 5.88 14.04 7.128 14.04 8.696C14.04 9.064 14 9.504 13.92 10.016C13.856 10.368 13.744 10.8 13.584 11.312H3.48C3.464 11.424 3.456 11.592 3.456 11.816C3.456 12.76 3.744 13.512 4.32 14.072C4.912 14.632 5.68 14.912 6.624 14.912C8.112 14.912 9.256 14.296 10.056 13.064H13.008C12.4 14.28 11.504 15.28 10.32 16.064C9.136 16.832 7.768 17.216 6.216 17.216C5.112 17.216 4.144 17 3.312 16.568C2.48 16.136 1.832 15.52 1.368 14.72C0.904 13.904 0.672 12.952 0.672 11.864C0.672 11.4 0.72 10.904 0.816 10.376C1.056 9.016 1.544 7.824 2.28 6.8C3.016 5.76 3.928 4.96 5.016 4.4C6.12 3.84 7.32 3.56 8.616 3.56ZM11.184 9.344C11.216 9.056 11.232 8.848 11.232 8.72C11.232 7.84 10.936 7.144 10.344 6.632C9.768 6.12 9.016 5.864 8.088 5.864C7.112 5.864 6.232 6.176 5.448 6.8C4.664 7.424 4.128 8.272 3.84 9.344H11.184ZM21.4125 17.168C20.3885 17.168 19.4685 17.008 18.6525 16.688C17.8365 16.352 17.1885 15.872 16.7085 15.248C16.2285 14.608 15.9885 13.856 15.9885 12.992C15.9885 12.88 16.0045 12.68 16.0365 12.392H18.7485C18.6845 13.128 18.9005 13.744 19.3965 14.24C19.8925 14.72 20.6045 14.96 21.5325 14.96C22.5245 14.96 23.3005 14.76 23.8605 14.36C24.4205 13.944 24.7005 13.352 24.7005 12.584C24.7005 12.12 24.5565 11.728 24.2685 11.408C23.9965 11.072 23.6445 10.792 23.2125 10.568C22.7965 10.344 22.2125 10.08 21.4605 9.776C20.4685 9.36 19.6765 8.984 19.0845 8.648C18.4925 8.312 17.9805 7.848 17.5485 7.256C17.1325 6.664 16.9245 5.92 16.9245 5.024C16.9245 4.032 17.1805 3.168 17.6925 2.432C18.2045 1.68 18.9085 1.104 19.8045 0.704C20.7165 0.303999 21.7405 0.103999 22.8765 0.103999C24.0125 0.103999 24.9885 0.295999 25.8045 0.68C26.6365 1.048 27.2605 1.576 27.6765 2.264C28.1085 2.936 28.3005 3.728 28.2525 4.64H25.3725C25.4365 3.984 25.2365 3.44 24.7725 3.008C24.3085 2.56 23.6365 2.336 22.7565 2.336C21.8285 2.336 21.0845 2.552 20.5245 2.984C19.9805 3.4 19.7085 3.968 19.7085 4.688C19.7085 5.136 19.8445 5.528 20.1165 5.864C20.4045 6.184 20.7645 6.464 21.1965 6.704C21.6285 6.928 22.2125 7.2 22.9485 7.52C23.9405 7.968 24.7325 8.368 25.3245 8.72C25.9325 9.072 26.4525 9.552 26.8845 10.16C27.3165 10.752 27.5325 11.488 27.5325 12.368C27.5325 13.296 27.2765 14.128 26.7645 14.864C26.2525 15.584 25.5325 16.152 24.6045 16.568C23.6765 16.968 22.6125 17.168 21.4125 17.168ZM33.5717 13.328C33.5397 13.552 33.5237 13.696 33.5237 13.76C33.5237 14.096 33.6277 14.344 33.8357 14.504C34.0437 14.648 34.3877 14.72 34.8677 14.72H36.5477L36.1397 17H33.9797C32.9237 17 32.1157 16.792 31.5557 16.376C30.9957 15.944 30.7157 15.264 30.7157 14.336C30.7157 13.984 30.7477 13.648 30.8117 13.328L32.1077 6.008H30.5477L30.9317 3.776H32.5157L33.0917 0.487999H35.8517L35.2757 3.776H38.4677L38.0837 6.008H34.8677L33.5717 13.328ZM38.9254 10.328C39.1654 9 39.6454 7.824 40.3654 6.8C41.1014 5.776 41.9974 4.984 43.0534 4.424C44.1094 3.848 45.2134 3.56 46.3654 3.56C47.4054 3.56 48.2774 3.768 48.9814 4.184C49.6854 4.584 50.2134 5.088 50.5654 5.696L50.9014 3.776H53.6614L51.3334 17H48.5734L48.9334 15.032C48.3574 15.656 47.6294 16.176 46.7494 16.592C45.8854 17.008 44.9414 17.216 43.9174 17.216C42.9254 17.216 42.0374 16.992 41.2534 16.544C40.4854 16.096 39.8774 15.464 39.4294 14.648C38.9974 13.816 38.7814 12.864 38.7814 11.792C38.7814 11.312 38.8294 10.824 38.9254 10.328ZM49.7494 10.376C49.8134 10.072 49.8454 9.744 49.8454 9.392C49.8454 8.32 49.5254 7.48 48.8854 6.872C48.2614 6.248 47.4774 5.936 46.5334 5.936C45.8294 5.936 45.1414 6.112 44.4694 6.464C43.7974 6.8 43.2134 7.304 42.7174 7.976C42.2214 8.632 41.8934 9.416 41.7334 10.328C41.6694 10.632 41.6374 10.96 41.6374 11.312C41.6374 12.4 41.9494 13.264 42.5734 13.904C43.2134 14.528 44.0054 14.84 44.9494 14.84C45.6534 14.84 46.3414 14.664 47.0134 14.312C47.6854 13.96 48.2694 13.448 48.7654 12.776C49.2614 12.088 49.5894 11.288 49.7494 10.376ZM63.975 3.56C65.367 3.56 66.471 3.936 67.287 4.688C68.119 5.424 68.535 6.488 68.535 7.88C68.535 8.232 68.495 8.672 68.415 9.2L67.023 17H64.311L65.631 9.608C65.695 9.16 65.727 8.84 65.727 8.648C65.727 7.768 65.479 7.096 64.983 6.632C64.503 6.168 63.831 5.936 62.967 5.936C61.927 5.936 61.047 6.256 60.327 6.896C59.623 7.52 59.175 8.424 58.983 9.608V9.536L57.663 17H54.927L57.255 3.776H59.991L59.727 5.312C60.271 4.768 60.911 4.344 61.647 4.04C62.399 3.72 63.175 3.56 63.975 3.56ZM74.3529 13.328C74.3209 13.552 74.3049 13.696 74.3049 13.76C74.3049 14.096 74.4089 14.344 74.6169 14.504C74.8249 14.648 75.1689 14.72 75.6489 14.72H77.3289L76.9209 17H74.7609C73.7049 17 72.8969 16.792 72.3369 16.376C71.7769 15.944 71.4969 15.264 71.4969 14.336C71.4969 13.984 71.5289 13.648 71.5929 13.328L72.8889 6.008H71.3289L71.7129 3.776H73.2969L73.8729 0.487999H76.6329L76.0569 3.776H79.2489L78.8649 6.008H75.6489L74.3529 13.328ZM87.5066 3.56C89.1546 3.56 90.4666 4.024 91.4426 4.952C92.4346 5.88 92.9306 7.128 92.9306 8.696C92.9306 9.064 92.8906 9.504 92.8106 10.016C92.7466 10.368 92.6346 10.8 92.4746 11.312H82.3706C82.3546 11.424 82.3466 11.592 82.3466 11.816C82.3466 12.76 82.6346 13.512 83.2106 14.072C83.8026 14.632 84.5706 14.912 85.5146 14.912C87.0026 14.912 88.1466 14.296 88.9466 13.064H91.8986C91.2906 14.28 90.3946 15.28 89.2106 16.064C88.0266 16.832 86.6586 17.216 85.1066 17.216C84.0026 17.216 83.0346 17 82.2026 16.568C81.3706 16.136 80.7226 15.52 80.2586 14.72C79.7946 13.904 79.5626 12.952 79.5626 11.864C79.5626 11.4 79.6106 10.904 79.7066 10.376C79.9466 9.016 80.4346 7.824 81.1706 6.8C81.9066 5.76 82.8186 4.96 83.9066 4.4C85.0106 3.84 86.2106 3.56 87.5066 3.56ZM90.0746 9.344C90.1066 9.056 90.1226 8.848 90.1226 8.72C90.1226 7.84 89.8266 7.144 89.2346 6.632C88.6586 6.12 87.9066 5.864 86.9786 5.864C86.0026 5.864 85.1226 6.176 84.3386 6.8C83.5546 7.424 83.0186 8.272 82.7306 9.344H90.0746Z" fill="#047857"/>
</svg>
