<svg width="48" height="48" viewBox="0 0 48 48" fill="none" xmlns="http://www.w3.org/2000/svg">
<rect width="48" height="48" rx="8" fill="#059669"/>
<path d="M17.616 18.488C19.312 18.488 20.656 18.96 21.648 19.904C22.64 20.832 23.136 22.088 23.136 23.672C23.136 24.184 23.096 24.64 23.016 25.04C22.92 25.52 22.816 25.936 22.704 26.288H12.984C12.968 26.4 12.96 26.56 12.96 26.768C12.96 27.6 13.2 28.256 13.68 28.736C14.176 29.2 14.824 29.432 15.624 29.432C16.296 29.432 16.872 29.288 17.352 29C17.848 28.696 18.248 28.304 18.552 27.824H22.176C21.584 29.104 20.664 30.16 19.416 30.992C18.184 31.808 16.784 32.216 15.216 32.216C13.52 32.216 12.16 31.736 11.136 30.776C10.112 29.816 9.6 28.512 9.6 26.864C9.6 26.384 9.648 25.88 9.744 25.352C9.984 23.976 10.472 22.768 11.208 21.728C11.96 20.688 12.888 19.888 13.992 19.328C15.096 18.768 16.304 18.488 17.616 18.488ZM19.68 24.248C19.712 23.992 19.728 23.808 19.728 23.696C19.728 22.928 19.48 22.328 18.984 21.896C18.488 21.464 17.84 21.248 17.04 21.248C16.192 21.248 15.432 21.52 14.76 22.064C14.088 22.592 13.616 23.32 13.344 24.248H19.68ZM30.5805 32.168C28.9005 32.168 27.5165 31.792 26.4285 31.04C25.3565 30.272 24.8205 29.2 24.8205 27.824C24.8205 27.68 24.8365 27.464 24.8685 27.176H28.3005C28.2365 27.848 28.4125 28.4 28.8285 28.832C29.2605 29.264 29.8845 29.48 30.7005 29.48C31.5165 29.48 32.1565 29.312 32.6205 28.976C33.1005 28.624 33.3405 28.128 33.3405 27.488C33.3405 26.896 33.0925 26.424 32.5965 26.072C32.1165 25.72 31.3565 25.328 30.3165 24.896C29.3565 24.496 28.5725 24.128 27.9645 23.792C27.3725 23.456 26.8605 22.992 26.4285 22.4C26.0125 21.792 25.8045 21.032 25.8045 20.12C25.8045 19.08 26.0685 18.176 26.5965 17.408C27.1405 16.64 27.8765 16.048 28.8045 15.632C29.7485 15.216 30.8205 15.008 32.0205 15.008C33.2045 15.008 34.2285 15.208 35.0925 15.608C35.9725 15.992 36.6285 16.544 37.0605 17.264C37.5085 17.984 37.7005 18.824 37.6365 19.784H34.0605L34.0845 19.52C34.0845 18.992 33.8845 18.56 33.4845 18.224C33.1005 17.888 32.5565 17.72 31.8525 17.72C31.1005 17.72 30.4925 17.896 30.0285 18.248C29.5645 18.6 29.3325 19.08 29.3325 19.688C29.3325 20.088 29.4605 20.44 29.7165 20.744C29.9885 21.032 30.3165 21.288 30.7005 21.512C31.0845 21.72 31.6365 21.992 32.3565 22.328C33.3005 22.744 34.0765 23.136 34.6845 23.504C35.2925 23.872 35.8125 24.36 36.2445 24.968C36.6765 25.576 36.8925 26.32 36.8925 27.2C36.8925 28.16 36.6285 29.016 36.1005 29.768C35.5885 30.52 34.8525 31.112 33.8925 31.544C32.9485 31.96 31.8445 32.168 30.5805 32.168Z" fill="#F1F5F9"/>
</svg>
