<svg width="10" height="8" viewBox="0 0 10 8" fill="none" xmlns="http://www.w3.org/2000/svg">
<path d="M8.96489 0.707258C8.74077 0.483037 8.47467 0.305168 8.1818 0.183815C7.88892 0.062461 7.575 0 7.25798 0C6.94096 0 6.62704 0.062461 6.33417 0.183815C6.04129 0.305168 5.77519 0.483037 5.55108 0.707258L5.08595 1.17238L4.62083 0.707258C4.16813 0.254559 3.55414 0.00023465 2.91393 0.000234655C2.27371 0.000234659 1.65972 0.254559 1.20702 0.707258C0.754324 1.15996 0.5 1.77395 0.5 2.41416C0.5 3.05438 0.754324 3.66837 1.20702 4.12107L1.67214 4.58619L5.08595 8L8.49976 4.58619L8.96489 4.12107C9.18911 3.89695 9.36697 3.63086 9.48833 3.33798C9.60968 3.0451 9.67214 2.73119 9.67214 2.41416C9.67214 2.09714 9.60968 1.78322 9.48833 1.49035C9.36697 1.19747 9.18911 0.931374 8.96489 0.707258Z" fill="#059669"/>
</svg>
