<svg width="22" height="22" viewBox="0 0 22 22" fill="none" xmlns="http://www.w3.org/2000/svg">
<path d="M19.9319 1.48755L17.9319 3.48755M10.3219 11.0975L14.4319 6.98755M14.4319 6.98755L17.4319 9.98755L20.9319 6.48755L17.9319 3.48755M14.4319 6.98755L17.9319 3.48755M10.3219 11.0975C10.8383 11.607 11.2487 12.2136 11.5297 12.8823C11.8106 13.5511 11.9565 14.2688 11.9589 14.9942C11.9614 15.7195 11.8203 16.4382 11.5438 17.1089C11.2674 17.7795 10.861 18.3888 10.3481 18.9017C9.83515 19.4146 9.22584 19.821 8.55522 20.0975C7.8846 20.3739 7.16591 20.515 6.44055 20.5126C5.71518 20.5101 4.99746 20.3643 4.32871 20.0833C3.65995 19.8024 3.05338 19.3919 2.54392 18.8755C1.54205 17.8382 0.987677 16.4489 1.00021 15.0068C1.01274 13.5648 1.59117 12.1853 2.61091 11.1655C3.63066 10.1458 5.01013 9.56737 6.45221 9.55484C7.89429 9.54231 9.2836 10.0967 10.3209 11.0985L10.3219 11.0975Z" stroke="#94A3B8" stroke-width="2" stroke-linecap="round" stroke-linejoin="round"/>
</svg>
